<svg width="11" height="11" viewbox="0 0 11 11" fill="none" xmlns="http://www.w3.org/2000/svg">
<path d="M9.69364 3.06522C9.55287 2.73927 9.34988 2.44389 9.09606 2.19563C8.84204 1.94663 8.54255 1.74875 8.21387 1.61276C7.87304 1.47118 7.50749 1.39871 7.13843 1.39956C6.62067 1.39956 6.11551 1.54134 5.67651 1.80915C5.57149 1.87321 5.47172 1.94358 5.3772 2.02024C5.28268 1.94358 5.18291 1.87321 5.07788 1.80915C4.63889 1.54134 4.13373 1.39956 3.61596 1.39956C3.24313 1.39956 2.88185 1.47097 2.54053 1.61276C2.21076 1.74928 1.91354 1.94568 1.65834 2.19563C1.40418 2.44361 1.20115 2.73906 1.06076 3.06522C0.914776 3.40445 0.84021 3.76467 0.84021 4.1354C0.84021 4.48513 0.911626 4.84956 1.05341 5.22029C1.17208 5.53011 1.34222 5.85148 1.55962 6.176C1.90409 6.68956 2.37775 7.22518 2.96587 7.76815C3.94049 8.66819 4.90565 9.28993 4.94661 9.31513L5.19551 9.47477C5.30578 9.54513 5.44756 9.54513 5.55784 9.47477L5.80674 9.31513C5.8477 9.28888 6.81181 8.66819 7.78747 7.76815C8.3756 7.22518 8.84926 6.68956 9.19373 6.176C9.41113 5.85148 9.58232 5.53011 9.69994 5.22029C9.84172 4.84956 9.91314 4.48513 9.91314 4.1354C9.91419 3.76467 9.83962 3.40445 9.69364 3.06522ZM5.3772 8.64404C5.3772 8.64404 1.63838 6.24846 1.63838 4.1354C1.63838 3.06522 2.52373 2.19773 3.61596 2.19773C4.38368 2.19773 5.04953 2.62623 5.3772 3.25216C5.70487 2.62623 6.37072 2.19773 7.13843 2.19773C8.23067 2.19773 9.11601 3.06522 9.11601 4.1354C9.11601 6.24846 5.3772 8.64404 5.3772 8.64404Z" fill="#195557"/>
<path d="M7.13841 2.19775C6.3707 2.19775 5.70485 2.62625 5.37718 3.25218C5.04951 2.62625 4.38366 2.19775 3.61595 2.19775C2.52371 2.19775 1.63837 3.06524 1.63837 4.13543C1.63837 6.24849 5.37718 8.64406 5.37718 8.64406C5.37718 8.64406 9.116 6.24849 9.116 4.13543C9.116 3.06524 8.23065 2.19775 7.13841 2.19775Z" fill="black" fill-opacity="0.1"/>
</svg>
