<svg width="30" height="32" xmlns="http://www.w3.org/2000/svg">
 <defs>
  <filter color-interpolation-filters="sRGB" height="117" width="117" y="0" x="0" id="filter0_dd_4477_16"/>
  <stop stop-color="#B0D3CE"/>
  <stop stop-color="#FFEDCE" offset="1"/>
 </defs>
 <g>
  <title>background</title>
  <rect fill="none" id="canvas_background" height="34" width="32" y="-1" x="-1"/>
 </g>
 <g>
  <title>Layer 1</title>
  <g id="svg_1" filter="url(#filter0_dd_4477_16)">
   <rect id="svg_2" fill="url(#paint0_linear_4477_16)" rx="34.5" height="69" width="69" y="24" x="24"/>
  </g>
  <path id="svg_3" fill="#195557" d="m19.33,21.48l2.24,-2.24c0.3017,-0.298 0.6834,-0.5019 1.0988,-0.5871c0.4154,-0.0853 0.8466,-0.048 1.2412,0.1071l2.73,1.09c0.3988,0.1619 0.7408,0.4382 0.9828,0.7941c0.242,0.3559 0.3733,0.7755 0.3772,1.2059l0,5c-0.0023,0.2928 -0.0639,0.582 -0.1809,0.8504c-0.1171,0.2684 -0.2873,0.5103 -0.5003,0.7111c-0.213,0.2009 -0.4645,0.3566 -0.7392,0.4577c-0.2748,0.1012 -0.5672,0.1456 -0.8596,0.1308c-19.13,-1.19 -22.99,-17.39 -23.72,-23.59c-0.0339,-0.3045 -0.0029,-0.6127 0.0908,-0.9043c0.0938,-0.2916 0.2483,-0.5601 0.4533,-0.7878c0.205,-0.2276 0.4558,-0.4093 0.7361,-0.5331c0.2802,-0.1237 0.5835,-0.1867 0.8898,-0.1848l4.83,0c0.431,0.0013 0.8518,0.1314 1.2082,0.3738c0.3564,0.2424 0.6322,0.5858 0.7918,0.9862l1.09,2.73c0.1603,0.393 0.2011,0.8246 0.1175,1.2408c-0.0835,0.4162 -0.2879,0.7985 -0.5875,1.0992l-2.24,2.24c0,0 1.29,8.73 9.95,9.81z"/>
 </g>
</svg>