<svg width="13" height="13" viewbox="0 0 13 13" fill="none" xmlns="http://www.w3.org/2000/svg">
<path d="M9.22206 1.63322L8.65052 2.20476L8.79947 2.3537L7.8935 3.25967L8.45194 3.83081L9.35869 2.91174L9.92944 3.48288L9.01076 4.38844L9.58191 4.94727L10.4879 4.04131L10.6368 4.19025L11.2083 3.61871L9.22206 1.63322ZM7.03759 3.02335L6.46605 3.59488L6.72699 3.85543L2.78024 7.8145L2.64361 7.95073L2.66864 8.1374L2.80487 9.40321L2.81758 9.53944L2.85452 9.56446L1.56409 10.8553H2.69366L3.50072 10.0486L4.70417 10.1725L4.89084 10.1976L5.02708 10.0609L8.98654 6.11378L9.24708 6.37473L9.81823 5.80359L7.03759 3.02335ZM7.29814 4.42618L8.4154 5.54304L4.60488 9.36587L3.66158 9.25427L3.58691 9.1796L3.4753 8.2363L7.29814 4.42618Z" fill="#195557"/>
</svg>
